# xmcd CD database file
#
# Track frame offsets:
#	187
#	23227
#	43275
#	64855
#	84422
#	114422
#	141800
#	166390
#	189912
#	210600
#	228852
#
# Disc length: 3392 seconds
#
# Revision: 0
# Processed by: cddbd v1.4PL0 Copyright (c) Steve Scherf et al.
# Submitted via: CDex 1.51
#
DISCID=8f0d3e0b
DTITLE=Harry Allen - Here's to zoot
DYEAR=1997
DGENRE=Jazz
TTITLE0=I cover the waterfront
TTITLE1=Stars fell on Alabama
TTITLE2=Spring is here
TTITLE3=I cried for you
TTITLE4=Grooveyard
TTITLE5=I remember you
TTITLE6=Someone to watch over me
TTITLE7=9:20 special
TTITLE8=The way you look tonight
TTITLE9=All my tomorrow
TTITLE10=I'll take romance
EXTD=YEAR: 1997
EXTT0=
EXTT1=
EXTT2=
EXTT3=
EXTT4=
EXTT5=
EXTT6=
EXTT7=
EXTT8=
EXTT9=
EXTT10=
PLAYORDER=
